<svg width="100" height="100" viewBox="0 0 100 100" fill="none" xmlns="http://www.w3.org/2000/svg">
<g clip-path="url(#clip0_9649_98)">
<path d="M43.7511 34.375C35.121 34.375 28.125 41.371 28.125 50.0011C28.125 58.6311 35.121 65.6269 43.7511 65.6269C48.2016 65.6269 52.2113 63.7725 55.0631 60.7813C56.8494 58.9075 59.8166 58.8366 61.6903 60.623C63.5644 62.4094 63.635 65.3763 61.8486 67.25C57.3011 72.02 50.8704 75.0019 43.7511 75.0019C29.9434 75.0019 18.75 63.8087 18.75 50.0011C18.75 36.1934 29.9434 25 43.7511 25C50.8403 25 57.247 27.9568 61.7911 32.6918C63.5838 34.5596 63.5225 37.527 61.6548 39.3195C59.7869 41.1121 56.8196 41.0511 55.0271 39.1832C52.1775 36.214 48.183 34.375 43.7511 34.375Z" fill="white"/>
<path d="M87.5 37.5C89.2256 37.5 90.625 38.8991 90.625 40.625V46.875H96.875C98.6006 46.875 100 48.2741 100 50C100 51.7259 98.6006 53.125 96.875 53.125H90.625V59.375C90.625 61.1009 89.2256 62.5 87.5 62.5C85.7744 62.5 84.375 61.1009 84.375 59.375V53.125H78.125C76.3994 53.125 75 51.7259 75 50C75 48.2741 76.3994 46.875 78.125 46.875H84.375V40.625C84.375 38.8991 85.7744 37.5 87.5 37.5Z" fill="white"/>
<path d="M71.875 37.5C73.6006 37.5 75 38.8991 75 40.625V46.875H81.25C82.9756 46.875 84.375 48.2741 84.375 50C84.375 51.7259 82.9756 53.125 81.25 53.125H75V59.375C75 61.1009 73.6006 62.5 71.875 62.5C70.1494 62.5 68.75 61.1009 68.75 59.375V53.125H62.5C60.7741 53.125 59.375 51.7259 59.375 50C59.375 48.2741 60.7741 46.875 62.5 46.875H68.75V40.625C68.75 38.8991 70.1494 37.5 71.875 37.5Z" fill="white"/>
<path d="M41.1649 0.638537C42.6244 -0.212846 44.4292 -0.212846 45.8887 0.638537L75.3531 17.8261C77.5894 19.1305 78.3444 22.0007 77.04 24.2369C75.7356 26.4731 72.8656 27.2284 70.6294 25.9239L43.5268 10.1143L9.375 30.0361V69.9637L43.5268 89.8856L70.6294 74.0762C72.8656 72.7719 75.7356 73.5269 77.04 75.7631C78.3444 77.9994 77.5894 80.8694 75.3531 82.1738L45.8887 99.3613C44.4292 100.213 42.6244 100.213 41.1649 99.3613L2.32561 76.705C0.885519 75.865 0 74.3237 0 72.6562V27.3438C0 25.6766 0.885519 24.1348 2.32561 23.2948L41.1649 0.638537Z" fill="white"/>
</g>
<defs>
<clipPath id="clip0_9649_98">
<rect width="100" height="100" fill="white"/>
</clipPath>
</defs>
</svg>
