<svg width="100" height="100" viewBox="0 0 100 100" fill="none" xmlns="http://www.w3.org/2000/svg">
<g clip-path="url(#clip0_9649_88)">
<path d="M43.7511 34.375C35.121 34.375 28.125 41.371 28.125 50.0011C28.125 58.6311 35.121 65.6269 43.7511 65.6269C48.2016 65.6269 52.2113 63.7725 55.0631 60.7813C56.8494 58.9075 59.8166 58.8366 61.6903 60.623C63.5644 62.4094 63.635 65.3763 61.8486 67.25C57.3011 72.02 50.8704 75.0019 43.7511 75.0019C29.9434 75.0019 18.75 63.8087 18.75 50.0011C18.75 36.1934 29.9434 25 43.7511 25C50.8403 25 57.247 27.9568 61.7911 32.6918C63.5838 34.5596 63.5225 37.527 61.6548 39.3195C59.7869 41.1121 56.8196 41.0511 55.0271 39.1832C52.1775 36.214 48.183 34.375 43.7511 34.375Z" fill="white"/>
<path d="M41.1649 0.638537C42.6244 -0.212846 44.4292 -0.212846 45.8887 0.638537L75.3531 17.8261C77.5894 19.1305 78.3444 22.0007 77.04 24.2369C75.7356 26.4731 72.8656 27.2284 70.6294 25.9239L43.5268 10.1143L9.375 30.0361V69.9637L43.5268 89.8856L70.6294 74.0762C72.8656 72.7719 75.7356 73.5269 77.04 75.7631C78.3444 77.9994 77.5894 80.8694 75.3531 82.1738L45.8887 99.3613C44.4292 100.213 42.6244 100.213 41.1649 99.3613L2.32561 76.705C0.885519 75.865 0 74.3237 0 72.6562V27.3438C0 25.6766 0.885519 24.1348 2.32561 23.2948L41.1649 0.638537Z" fill="white"/>
<path d="M76.1244 32.8125C77.85 32.8125 79.2494 34.2116 79.2494 35.9375V64.0625C79.2494 65.7881 77.85 67.1875 76.1244 67.1875C74.3988 67.1875 72.9994 65.7881 72.9994 64.0625V35.9375C72.9994 34.2116 74.3988 32.8125 76.1244 32.8125Z" fill="white"/>
<path d="M89.5006 32.8125C91.2262 32.8125 92.6256 34.2116 92.6256 35.9375V64.0625C92.6256 65.7881 91.2262 67.1875 89.5006 67.1875C87.775 67.1875 86.3756 65.7881 86.3756 64.0625V35.9375C86.3756 34.2116 87.775 32.8125 89.5006 32.8125Z" fill="white"/>
<path d="M65.625 43.312C65.625 41.5861 67.0244 40.187 68.75 40.187H96.875C98.6006 40.187 100 41.5861 100 43.312C100 45.0379 98.6006 46.437 96.875 46.437H68.75C67.0244 46.437 65.625 45.0379 65.625 43.312Z" fill="white"/>
<path d="M65.625 56.688C65.625 54.9621 67.0244 53.563 68.75 53.563H96.875C98.6006 53.563 100 54.9621 100 56.688C100 58.4139 98.6006 59.813 96.875 59.813H68.75C67.0244 59.813 65.625 58.4139 65.625 56.688Z" fill="white"/>
</g>
<defs>
<clipPath id="clip0_9649_88">
<rect width="100" height="100" fill="white"/>
</clipPath>
</defs>
</svg>
