<svg width="90" height="100" viewBox="0 0 90 100" fill="none" xmlns="http://www.w3.org/2000/svg">
<path d="M89.3576 0.0979004L81.0392 90.1983L44.9994 99.9022L8.95894 90.1983L0.642334 0.0979004H89.3576ZM72.5957 18.4184H44.9669H16.8488L18.1935 29.2989H44.9669H46.4708L44.9669 29.9249L19.172 40.6682L20.0275 51.3036L44.9669 51.3844L58.3337 51.4268L57.4781 65.6077L44.9667 69.1301V69.119L44.8642 69.1475L32.7814 66.0973L32.0482 57.2946H32.0082H20.8007H20.7613L22.2283 74.2881L44.9671 81.0125V81.0004L45.0082 81.0125L67.6251 74.4106L70.5589 40.6682H44.9671H44.9041L44.9671 40.6409L71.4964 29.2989L72.5957 18.4184Z" fill="white"/>
</svg>
