<svg width="88" height="100" viewBox="0 0 88 100" fill="none" xmlns="http://www.w3.org/2000/svg">
<path d="M-0.00134277 0.0979004L8.00725 89.9258L43.9459 99.902L79.984 89.9118L88.0014 0.0979004H-0.00134277ZM71.2957 21.4153L70.7944 27.0004L70.574 29.4772H70.5375H44H43.9615H28.4149L29.4217 40.7586H43.9615H44H66.6022H69.5711L69.3022 43.7168L66.7133 72.7219L66.5475 74.5819L44 80.8309V80.8333L43.9494 80.8473L21.3817 74.5821L19.8381 57.284H24.9354H30.8975L31.6819 66.0704L43.9514 69.3838L43.9615 69.3811V69.3799L56.2498 66.0641L57.5276 51.7754H44H43.9615H19.3459L16.6383 21.4153L16.3744 18.46H43.9617H44H71.5594L71.2957 21.4153Z" fill="white"/>
</svg>
