<svg width="30" height="30" viewBox="0 0 30 30" fill="none" xmlns="http://www.w3.org/2000/svg">
<g clip-path="url(#clip0_9599_463)">
<path d="M0.359985 0.628174V29.9682H29.7V0.628174H0.359985ZM15.6731 25.7269C15.2409 26.6054 14.415 27.1829 13.4587 27.4613C11.9887 27.7988 10.5834 27.6066 9.53717 26.9785C8.83686 26.5491 8.2903 25.8882 7.91999 25.1269C8.66436 24.6722 9.40686 24.2147 10.1512 23.76C10.1709 23.7685 10.229 23.8744 10.3078 24.0113C10.5919 24.4885 10.8375 24.826 11.3203 25.0622C11.7947 25.2235 12.8344 25.3275 13.2365 24.4932C13.4822 24.0694 13.4034 22.6782 13.4034 21.1697C13.4034 18.7988 13.4147 16.4672 13.4147 14.0672H16.1587C16.1587 16.5872 16.1728 19.1138 16.1587 21.63C16.1644 23.1722 16.2984 24.5747 15.6731 25.7269ZM27.0581 24.9516C26.1047 28.215 20.7853 28.321 18.6609 26.1647C18.2119 25.6575 17.9306 25.3922 17.6625 24.8063C18.7922 24.1566 18.7922 24.1566 19.8909 23.521C20.4881 24.4388 21.0403 24.9432 22.0331 25.1494C23.3803 25.3135 24.7359 24.8513 24.4322 23.4207C24.12 22.2516 21.674 21.9676 20.009 20.7179C18.3187 19.5826 17.9231 16.8244 19.3115 15.2485C19.7747 14.6654 20.564 14.2304 21.3919 14.0213L22.2562 13.9097C23.9156 13.876 24.9534 14.3138 25.7147 15.165C25.9265 15.3797 26.099 15.6113 26.4234 16.1138C25.5394 16.6772 25.5422 16.6716 24.2756 17.4919C24.0047 16.9088 23.5565 16.5432 23.0822 16.3847C22.3462 16.1616 21.4172 16.4044 21.225 17.1825C21.1584 17.4225 21.1725 17.6457 21.2784 18.0413C21.5765 18.7219 22.5778 19.0172 23.4759 19.4297C26.0615 20.4788 26.9344 21.6019 27.149 22.9407C27.3553 24.0929 27.0984 24.84 27.06 24.9516H27.0581Z" fill="white"/>
</g>
<defs>
<clipPath id="clip0_9599_463">
<rect width="30" height="30" fill="white"/>
</clipPath>
</defs>
</svg>
