<svg width="20" height="20" viewBox="0 0 20 20" fill="none" xmlns="http://www.w3.org/2000/svg">
<g clip-path="url(#clip0_9605_279)">
<path d="M10.8144 8.97812C10.8219 8.96875 10.8287 8.95875 10.8337 8.94812V8.97812H10.8144ZM20 0V20H0V0H20ZM6.20312 7.67812H3.22062V16.6494H6.20312V7.67812ZM6.39813 4.90438C6.37938 4.02313 5.75125 3.35312 4.73062 3.35312C3.71125 3.35312 3.04437 4.02313 3.04437 4.90438C3.04437 5.76375 3.69125 6.45375 4.69187 6.45375H4.71125C5.75125 6.45375 6.39813 5.76375 6.39813 4.90438ZM16.9556 11.505C16.9556 8.75 15.4838 7.46813 13.5219 7.46813C11.94 7.46813 11.2319 8.3375 10.8337 8.94812V7.67812H7.8525C7.89062 8.51937 7.8525 16.6494 7.8525 16.6494H10.8337V11.6394C10.8337 11.3681 10.8531 11.105 10.9319 10.9119C11.1481 10.3781 11.6394 9.82063 12.4619 9.82063C13.5425 9.82063 13.9731 10.6419 13.9731 11.8494V16.6494H16.955L16.9556 11.505Z" fill="white"/>
</g>
<defs>
<clipPath id="clip0_9605_279">
<rect width="20" height="20" fill="white"/>
</clipPath>
</defs>
</svg>
