<svg width="100" height="100" viewBox="0 0 100 100" fill="none" xmlns="http://www.w3.org/2000/svg">
<path d="M52.425 87.0249H52.45C52.5094 87.1718 50.2031 93.5468 49.3656 95.5687C49.175 96.0218 49.1094 96.1343 49.0062 96.128C47.1375 95.8926 45.2718 95.6322 43.4093 95.3468C39.8718 94.8093 33.9469 93.7718 32.4531 93.4343L32.1062 93.3562L34.2281 92.8812C38.775 91.8593 40.9562 91.3061 43.1718 90.628C46.4812 89.603 49.2468 88.5124 51.9125 87.2436L51.5218 87.4124C51.7593 87.2905 52.0625 87.1624 52.3687 87.0499L52.4312 87.0312L52.425 87.0249ZM34.7625 82.8811C34.7812 82.8999 33.775 84.5124 32.0062 87.303C31.2562 88.478 30.4093 89.8218 30.1187 90.278C29.825 90.7374 29.4 91.4405 29.175 91.8405L28.7562 92.5624L28.5469 92.5093C28.0406 92.3718 24.45 91.103 23.5062 90.728C22.1656 90.1968 21.0781 89.6874 20.025 89.1218L20.2031 89.2093C19.2687 88.7437 18.4687 88.228 17.725 87.6374L17.7531 87.6593L22.0687 86.4812C28.2843 84.7874 31.725 83.8124 33.9781 83.1062C34.4031 82.978 34.7562 82.8749 34.7594 82.8843L34.7625 82.8811ZM37.2687 82.8124C37.2812 82.7999 37.9125 83.0218 38.6812 83.3124C40.0781 83.8687 41.8344 84.428 43.6312 84.878L43.9406 84.9436C46.1687 85.5218 48.875 86.0062 51.6375 86.303L51.8969 86.3249C52.2094 86.3499 52.3718 86.3874 52.325 86.4186C52.2281 86.4811 50.1375 87.1749 48.6031 87.6593C42.5844 89.4905 36.55 91.2645 30.5 92.9812C30.4906 92.9812 30.4781 92.9812 30.4656 92.9812C30.2531 92.9812 30.0531 92.9218 29.8812 92.8218L29.8875 92.8249C30.1375 92.4655 30.3875 92.153 30.65 91.853L30.6406 91.8624C32.5562 89.5812 34.4531 87.0562 36.2062 84.428L36.4031 84.1155C36.6885 83.678 36.975 83.2416 37.2625 82.8061L37.2687 82.8124ZM25.9437 74.7155L26.4 75.228C28.2906 77.3655 30.4875 79.178 32.9375 80.603L33.0625 80.6718C33.3531 80.8187 33.6031 80.9843 33.8281 81.1749L33.8219 81.1718C28.201 83.2093 22.5646 85.2009 16.9125 87.1468C16.8166 87.0884 16.7229 87.0259 16.6312 86.9593L16.3687 86.7718L16.7781 86.178C18.1062 84.253 19.7781 82.1374 23.4375 77.7343L25.9437 74.7155ZM24.1281 74.0218C24.1625 74.0562 22.3562 76.6405 19.8312 80.1749L17.5375 83.3874C17.1594 83.9312 16.5812 84.7843 16.2531 85.2937L15.6562 86.2155L15.025 85.6811C14.0719 84.8436 13.2094 83.9624 12.4125 83.0218L12.3812 82.9843C11.3 81.7062 10.4781 80.1687 10.0281 78.4812L10.0094 78.3999C9.86248 77.7218 9.8531 77.378 9.99685 77.3343C12.5114 76.728 15.0291 76.1353 17.55 75.5561L22.6281 74.3655C23.4437 74.1687 24.1187 74.0155 24.1281 74.0218ZM56.4906 72.9155L56.5 72.928C56.5 73.2405 55.7843 76.1624 55.1875 78.278C54.6875 80.0468 54.2656 81.4343 53.4875 83.8905C53.2896 84.553 53.0708 85.2093 52.8312 85.8593C48.4 85.0905 44.4656 83.9499 40.7219 82.4343L41.1156 82.5749C40.2677 82.2437 39.4354 81.8749 38.6187 81.4687C39.1281 81.1812 39.7531 80.878 40.3969 80.6155L40.5156 80.5718C46.9781 77.7562 53.6718 74.5468 55.9593 73.1687C56.1093 73.0593 56.2844 72.9749 56.475 72.9218L56.4875 72.9187L56.4906 72.9155ZM42.4718 68.0218C42.3937 68.2843 42.3094 68.503 42.2125 68.7155L42.225 68.6812C40.5437 72.6405 38.8937 75.8968 37.0656 79.0374L37.3 78.5999C36.9875 79.1728 36.6594 79.7364 36.3156 80.2905C36.2969 80.2905 35.8719 80.0343 35.3625 79.7249C32.4844 77.9936 30.0344 75.8968 27.9781 73.453L27.9406 73.4093L27.6906 73.0968L28.9875 72.7405C33.9 71.4187 38.0437 69.9468 42.0375 68.203L41.4437 68.4343C42 68.1999 42.4593 68.0093 42.4656 68.0218H42.4718ZM44.7281 67.2812C45.0375 67.428 45.2875 67.5687 45.5312 67.7187L45.4969 67.6999C48.625 69.4812 52.25 70.9312 56.075 71.8624L56.3656 71.9218L56.6937 71.9999L56.2437 72.2468C54.3625 73.2936 48.1562 75.8749 41.8187 78.2499C41.15 78.4999 40.4823 78.752 39.8156 79.0062C39.7219 79.053 39.6156 79.0905 39.5031 79.1093H39.4969C39.4969 79.0937 39.7593 78.5937 40.0781 77.9937C41.6437 75.1562 43.15 71.7968 44.3937 68.3124L44.5469 67.8218C44.6375 67.5374 44.7187 67.2937 44.7312 67.2843L44.7281 67.2812ZM22.5906 63.3155C22.65 63.3155 22.6344 63.4249 22.5437 63.9437C22.4666 64.4478 22.4135 64.9551 22.3844 65.4655C22.3687 65.6811 22.3594 65.9311 22.3594 66.1811C22.3594 68.0093 22.8312 69.728 23.6594 71.2187L23.6312 71.1655C23.9187 71.7499 24.1469 72.2343 24.1344 72.2437C24.0281 72.3343 14.6437 75.078 11.6937 75.8874L9.99373 76.3562C9.88748 76.3874 9.88123 76.3655 9.9156 76.1218C10.6375 73.3093 12.0844 70.8999 14.0406 69.0187L14.0469 69.0124C15.3781 67.6093 16.9156 66.4186 18.6156 65.4874L18.7125 65.4405C19.9916 64.7072 21.2833 63.9978 22.5875 63.3124L22.5906 63.3155ZM57.7843 59.1249V59.7249C57.7406 63.8843 57.3812 67.9249 56.725 71.8655L56.7875 71.4093C53.9531 70.5812 51.4937 69.5405 49.1875 68.2593L49.375 68.353C48.0875 67.6749 47.0031 66.9968 45.9687 66.2562L46.0562 66.3155C46.0687 66.2999 46.6562 65.9905 47.3593 65.6249C50.4343 64.0343 52.975 62.5218 55.4219 60.8843L55.1219 61.0718C55.9875 60.4936 57.2906 59.553 57.5781 59.2999L57.7843 59.1249ZM33.3062 58.1311C32.8187 59.3218 32.3531 60.2843 31.8375 61.2187L31.9156 61.0624C30.5437 63.7405 29.0281 66.378 27.0219 69.5937L26.3125 70.7186C26.2406 70.8249 26.2093 70.7905 25.9937 70.353C25.5156 69.403 25.1375 68.303 24.9125 67.1468L24.9 67.0655C24.8156 66.503 24.7656 65.853 24.7656 65.1937C24.7656 64.3593 24.8437 63.5468 24.9906 62.7562L24.9781 62.8374C25.1625 61.9499 25.1531 61.9718 25.5718 61.7593C27.375 60.8343 33.25 58.0811 33.3062 58.1311ZM36.15 56.9593L36.1875 56.9749C36.2656 57.1187 36.3375 57.2874 36.4 57.4624L36.4062 57.4874C37.0625 59.0968 37.85 60.4874 38.7937 61.7561L38.7562 61.7062C39.9375 63.2593 41.2406 64.6186 42.6875 65.8124L42.7281 65.8468C42.8187 65.9249 42.8437 65.9093 40.5343 66.7843C37.5739 67.9009 34.5875 68.9426 31.575 69.9093C30.2969 70.3218 29.2156 70.6718 29.1719 70.6905C29.0437 70.7343 29.0812 70.6562 29.4562 70.0749C31.4093 66.8905 33.2875 63.1749 34.8687 59.3062L35.0594 58.7811C35.3 58.1561 35.5344 57.5312 35.5781 57.3905C35.6094 57.2218 35.7281 57.0843 35.8875 57.0312C35.9625 56.9905 36.05 56.9687 36.1437 56.9655L36.15 56.9593ZM45.425 53.303C45.4437 53.7311 45.4562 54.2374 45.4562 54.7405C45.4562 55.6843 45.4156 56.6218 45.3375 57.5468L45.3468 57.4249C45.0125 60.1061 44.4406 62.5343 43.6375 64.8499L43.7125 64.5968C42.7562 63.7874 41.8937 62.9468 41.0937 62.0468L41.0718 62.0218C40.0906 60.9124 39.2219 59.6687 38.5094 58.3249L38.4594 58.2218C38.1719 57.6812 37.9062 57.0437 37.6937 56.3812L37.6687 56.2968C37.8875 56.1405 45.3656 53.2499 45.4218 53.2999L45.425 53.303ZM47.3906 52.5499C47.8594 52.7249 48.2656 52.953 48.6312 53.2312L48.6187 53.2218C50.9718 54.7405 53.7843 56.3312 56.6875 57.7718L57.2093 58.0062C57.7406 58.2405 57.8 58.1468 56.5844 58.9718C53.7969 60.8343 50.5937 62.5843 47.2375 64.053L46.8312 64.2124C46.4041 64.4082 45.9729 64.5926 45.5375 64.7655C45.5687 64.4749 45.6281 64.2093 45.7125 63.9562L45.7031 63.9843C46.5719 61.0187 47.1156 57.5999 47.2125 54.0655V54.0093C47.2187 52.5968 47.2187 52.5874 47.3562 52.553H47.3812L47.3906 52.5499ZM56.95 49.4155C57.3594 51.5124 57.625 53.9624 57.6937 56.4624V56.5249C57.7094 56.653 57.7187 56.7999 57.7187 56.9499C57.7187 57.1405 57.7031 57.328 57.675 57.5093L57.6781 57.4905C57.5687 57.4905 55.275 56.1436 53.6468 55.1249C52.1093 54.1561 50.5969 53.1509 49.1094 52.1093C48.9719 51.9999 48.9875 51.9968 50.1469 51.5968C52.1187 50.9187 56.8 49.4187 56.95 49.4187V49.4155ZM61.2469 46.8968L42.4718 53.0187L26.15 60.228L21.5812 61.4374C20.4166 62.5395 19.1823 63.6593 17.8781 64.7968C16.4344 66.0499 15.0812 67.1874 14.05 68.0061C12.6875 69.1374 11.4687 70.3468 10.3625 71.653L10.3281 71.6968C9.20623 73.028 8.2781 74.5687 7.61873 76.2437L7.58123 76.3562C7.33435 77.0812 7.19373 77.9155 7.19373 78.7843C7.19373 80.5124 7.75623 82.1093 8.70935 83.3999L8.69373 83.378C11.3594 86.7499 14.8093 89.3811 18.7781 91.0186L18.9437 91.078C21.4062 92.1437 24.4094 93.178 27.5 93.9968L27.9656 94.103C33.5469 95.4312 40.1312 96.4062 46.8656 96.8187L47.2031 96.8343C47.5562 96.8562 47.9656 96.8655 48.3812 96.8655C48.8437 96.8655 49.3 96.8499 49.7531 96.8218L49.6906 96.8249C50.2781 95.878 50.8906 94.7374 51.4375 93.5624L51.525 93.3499C54.1375 88.328 56.4094 82.4749 58.0375 76.3562L58.175 75.7437C58.9781 72.2249 59.5812 68.0468 59.8562 63.7812L59.8687 63.5405C59.975 62.1593 60.0125 57.553 59.9312 55.9874C59.8218 53.5405 59.5656 51.2499 59.1687 49.0062L59.2156 49.3249C59.1812 49.1968 59.1625 49.0499 59.1625 48.8999C59.1625 48.8437 59.1656 48.7874 59.1718 48.7343V48.7405C59.225 48.703 59.4031 48.6437 61.7093 47.9718L61.2469 46.8968ZM44.4187 14.0624C44.4781 14.0655 44.5437 14.1874 44.7187 14.5749C45.2031 15.6374 46.7094 18.5124 47.075 19.0655C47.1906 19.2499 47.3875 19.2593 45.3843 18.9374C40.5812 18.1655 39.0219 17.903 39.0219 17.8718C39.1156 17.7905 39.2219 17.7187 39.3375 17.6655L39.3468 17.6624C40.9843 16.7343 42.4 15.7437 43.7094 14.6343L43.6687 14.6687L44.3531 14.0937L44.4187 14.0624ZM27.425 10.6687L29.4219 13.1593C30.5219 14.5249 31.625 15.8874 31.8656 16.1812C32.0125 16.3437 32.1531 16.5218 32.2781 16.7124L32.2875 16.728C32.2343 16.7718 29.3968 16.2218 27.8937 15.8718C26.8354 15.6468 25.7906 15.3707 24.7594 15.0437L23.9781 14.7937L23.9812 14.603C23.9937 13.6468 25.2 12.2312 27.2469 10.7905L27.425 10.6687ZM27.9844 10.2218L28.5343 10.4093C32.7625 11.6687 37.7687 12.6593 42.9125 13.1905L43.275 13.2218C43.7437 13.2624 44.1406 13.303 44.1531 13.3155C43.9093 13.4687 43.6187 13.6249 43.3156 13.7687L43.2625 13.7905C41.25 14.7968 39.0344 16.028 37.5 16.9874C37.2344 17.1718 36.9344 17.3405 36.6156 17.478L36.5812 17.4905C36.3583 17.4593 36.1375 17.4239 35.9187 17.3843L35.3562 17.2937L33.9312 15.9062C31.4281 13.4843 29.475 11.6093 28.7187 10.9062L27.9844 10.2218ZM41.6594 3.86553H41.6781C41.6906 3.87803 41.7437 4.2749 41.8031 4.74365C42.0875 6.97803 42.5719 8.9999 43.25 10.928L43.1875 10.7187C43.7093 12.2812 43.7187 12.1905 43.0937 12.0155C41.65 11.6124 35.1593 10.4999 30.4656 9.84678C29.9989 9.78636 29.5344 9.71761 29.0719 9.64053C29.0125 9.58115 32.4562 7.77803 33.9844 7.0624C35.9406 6.15615 41.2719 3.9374 41.6594 3.86553ZM41.8968 3.1374C41.5843 3.0999 36.5437 4.91553 33.3062 6.2249C29.5094 7.6749 26.25 9.34678 23.2 11.3187L23.4094 11.1905C22.6531 11.7093 22.0187 12.3437 21.5187 13.078L21.5031 13.103C21.45 13.2437 21.4219 13.4062 21.4219 13.5749C21.4219 13.578 21.4219 13.5812 21.4219 13.5843L23.3281 15.3812L27.85 16.8249L38.625 18.753L50.9375 20.8687L51.0625 19.8155L50.9531 19.7968L49.3312 19.5374L49 18.9593C47.3271 16.0072 45.7948 12.9812 44.4031 9.88115C43.7062 8.3499 43.0031 6.4499 42.4218 4.4999L42.3344 4.1624C42.0687 3.2124 42.0406 3.15928 41.8968 3.1374ZM37.9969 47.8937C37.1375 48.9968 36.2687 49.978 35.3406 50.8999L35.3375 50.903C32.7468 53.5624 29.8593 55.9093 26.7218 57.8999L26.5281 58.0155C26.1062 58.2843 25.725 58.5218 25.6687 58.553C25.5781 58.6062 25.7 58.4687 27.175 56.8593C28.1031 55.8468 28.8156 55.0093 29.6281 53.9593C30.0062 53.4155 30.4781 52.9655 31.0219 52.6186L31.0406 52.6062C33.1375 51.0905 37.9406 47.8374 37.9969 47.8937ZM40.1969 47.3499C40.2625 47.3374 40.3531 47.4593 40.7406 48.0343C41.5281 49.2093 42.0875 50.6061 42.3219 52.1093L42.3281 52.1687L42.3594 52.453L40.4187 53.203C36.9437 54.553 33.7375 55.8843 31.5687 56.8749C30.9625 57.1562 29.8969 57.6624 29.1969 58.0155C28.4969 58.3687 27.9281 58.6405 27.9281 58.6249C27.9281 58.6093 28.3656 58.278 28.9031 57.8905C32.9343 54.9999 36.4375 51.7593 39.5031 48.1374L39.5719 48.053C39.8656 47.6937 40.1344 47.3812 40.1687 47.3593L40.1937 47.353L40.1969 47.3499ZM35.4219 43.5999C36.6312 44.1843 37.6718 44.8593 38.6187 45.6437L38.5937 45.6218C38.3531 45.8749 38.0844 46.0968 37.7906 46.2843L37.7719 46.2937C36.425 47.2655 34.375 48.8093 33.1906 49.753C31.9406 50.7499 31.8968 50.7812 32.0375 50.5624C32.6875 49.6249 33.3187 48.553 33.8687 47.4312L33.9344 47.2843C34.325 46.4905 34.725 45.5093 35.0687 44.4999L35.1219 44.3155C35.1937 44.0437 35.2969 43.8062 35.4281 43.5905L35.4219 43.603V43.5999ZM53.3468 39.2062C53.3812 39.2405 51.425 41.978 50.2656 43.5249C48.875 45.3718 46.4 48.4655 44.6969 50.4749C44.2614 51.0062 43.8114 51.5228 43.3469 52.0249C43.3094 52.0374 43.2875 51.8312 43.2843 51.5062C43.2687 49.6437 42.825 47.8905 42.05 46.328L42.0812 46.3968C41.7562 45.7405 41.7031 45.5843 41.7687 45.5218C42.0344 45.2812 46.1687 42.9218 48.775 41.528C50.5687 40.5687 53.3156 39.1687 53.3468 39.2062ZM56.3093 38.4655L57 38.9155C58.8656 40.1437 60.4656 41.3312 61.9937 42.5999L61.9 42.5249C62.7031 43.1968 64.2625 44.5937 64.5812 44.9312L64.7531 45.1155L63.6062 45.4374C57.7354 47.0395 51.9427 48.8926 46.2281 50.9968C45.575 51.2343 45.0187 51.4343 44.9781 51.4343C44.8968 51.4343 44.8156 51.5093 46.2781 50.1624C49.8281 46.9249 52.9656 43.3374 55.6719 39.428L55.8093 39.2187L56.3093 38.4655ZM45.0312 33.8249C44.7937 34.9312 44.5375 35.8468 44.2343 36.7405L44.2875 36.5562C43.3719 39.2593 42.2687 41.5937 40.9375 43.7718L41.025 43.6155L40.675 44.1905L39.8812 43.4218C39.1281 42.653 38.2562 42.003 37.2969 41.4968L37.2406 41.4687C36.9781 41.3499 36.7531 41.2155 36.5406 41.0624L36.5531 41.0687C36.5531 40.953 38.975 38.753 40.8406 37.1718C42.1812 36.0405 44.9969 33.7874 45.0281 33.8218L45.0312 33.8249ZM46.8875 33.4968C47.0875 33.5343 48.9312 34.3937 50.3187 35.0905C51.5875 35.728 53.5125 36.753 53.6094 36.8437C53.6219 36.8562 52.9469 37.2062 52.1031 37.628C49.4344 38.9624 47.15 40.2218 44.7687 41.678C44.0844 42.0968 43.5187 42.4343 43.5 42.4343C43.4406 42.4343 43.4625 42.3843 43.8437 41.6874C45.0781 39.4343 46.0718 36.8218 46.6875 34.0687L46.725 33.8687C46.7812 33.628 46.8406 33.478 46.8844 33.4905L46.8875 33.4968ZM78.4719 30.2562C78.7812 30.3624 79.0469 30.4937 79.2937 30.6562L79.2812 30.6468C82.8812 32.728 85.9906 35.0874 88.775 37.7812L88.7625 37.7687C89.5187 38.5093 91.3687 40.4374 91.3406 40.4499L89.9218 40.5624C82.0687 41.2718 74.925 42.5062 67.9843 44.2562L68.95 44.0499C68.45 44.1655 68.0219 44.2687 67.9906 44.2687C67.9625 44.2687 68.5094 43.7218 69.2062 43.0499C72.7562 39.8905 75.6531 36.0843 77.725 31.8062L77.8187 31.5905C78.1625 30.8968 78.4562 30.2905 78.4656 30.2562H78.4719ZM77.3875 29.9718C77.4156 30.003 76.475 31.4749 75.8875 32.3155C75.0281 33.5405 73.7906 35.1499 70.9625 38.7093L67.2375 43.403C66.8979 43.8447 66.5479 44.278 66.1875 44.703C66.0562 44.5374 65.925 44.353 65.8 44.1593L65.7844 44.1312C64.1437 41.703 62.2468 39.6155 60.0937 37.8249L60.0437 37.7843C59.6979 37.4947 59.3469 37.2114 58.9906 36.9343C58.8812 36.8593 58.7875 36.7812 58.7031 36.6905C58.7031 36.653 61.1125 35.6218 62.9531 34.8718C66.5156 33.4405 70.1312 32.152 73.8 31.0062C75.525 30.478 77.3625 29.953 77.3875 29.9749V29.9718ZM35.9531 29.9312C35.9906 29.8937 37.9594 30.353 39.0344 30.653C41.1219 31.2374 42.8 31.8155 44.4375 32.4718L44.0781 32.3468C44.0781 32.3624 43.7 32.6937 43.2375 33.0812C41.3812 34.6312 39.5906 36.2562 37.4468 38.3249C37.0614 38.7124 36.6604 39.0832 36.2437 39.4374C36.2156 39.4374 36.2062 39.3468 36.2187 39.2437C36.3437 38.178 36.4156 36.9437 36.4156 35.6937C36.4156 33.9249 36.275 32.1874 36 30.4968L36.025 30.6812C35.9844 30.4624 35.9562 30.2062 35.9469 29.9468V29.9374L35.9531 29.9312ZM61.65 24.028C61.7781 24.028 64.3656 24.7312 65.7 25.1343C69.5906 26.2968 72.7968 27.4968 75.9031 28.878L75.3656 28.6655L76.4 29.1343L75.6687 29.303C69.3219 30.7312 63.8593 32.4687 58.6093 34.6187L59.3156 34.3624C58.8969 34.5343 58.5344 34.6749 58.5062 34.6749C58.5844 34.3999 58.6844 34.1593 58.8094 33.9343L58.8 33.953C60.1687 31.2062 61.1375 28.0093 61.5312 24.6374L61.5437 24.4999C61.5656 24.2374 61.6125 24.028 61.65 24.028ZM60.5718 23.8593C60.5156 24.5562 60.4031 25.1937 60.2406 25.8124L60.2594 25.7343C59.3312 28.8562 58.1156 31.5749 56.6 34.0937L56.6906 33.9312C56.4906 34.303 56.2937 34.6187 56.0781 34.9187L56.0969 34.8937C55.7656 34.753 55.4844 34.603 55.2187 34.4312L55.2406 34.4437C53.7 33.5312 51.8718 32.6187 49.975 31.8312L49.675 31.7218C49.3083 31.578 48.9468 31.4218 48.5906 31.253C48.4968 31.1687 53.0531 28.1499 55.4718 26.6999C57.4062 25.5405 60.5187 23.8062 60.5718 23.8624V23.8593ZM45.4969 20.8749C45.5406 20.8343 51.3687 21.8437 54.0187 22.3499C55.9937 22.728 58.85 23.3249 59.0218 23.3999C59.1062 23.4312 58.8125 23.5937 57.8625 24.0249C54.2781 25.5999 51.225 27.2874 48.3468 29.2124L48.5687 29.0718C47.8437 29.5562 47.2375 29.953 47.225 29.953C47.2062 29.7562 47.1968 29.528 47.1968 29.2999C47.1968 29.2155 47.1969 29.128 47.2 29.0437V29.0562C47.2 29.0405 47.2 29.0218 47.2 28.9999C47.2 26.2343 46.6375 23.603 45.625 21.2062L45.675 21.3374C45.6094 21.2062 45.55 21.0499 45.5031 20.8874L45.5 20.8687L45.4969 20.8749ZM44.5218 20.7343C44.7562 21.1905 44.9343 21.7218 45.0218 22.2812L45.025 22.3124C45.4625 24.0124 45.7125 25.9624 45.7125 27.9718C45.7125 28.6968 45.6812 29.4155 45.6156 30.1249L45.6219 30.0343L45.575 30.1812L44.8437 29.9468C43.3281 29.4624 40.8593 28.7374 38.7437 28.1499C38.0062 27.9603 37.2771 27.7395 36.5562 27.4874C37.3562 26.5999 38.175 25.7812 39.0344 25.0062L39.0625 24.9812C40.6844 23.5655 42.4625 22.1718 44.3125 20.8749L44.5187 20.7374L44.5218 20.7343ZM32.2312 18.3999C32.5156 18.428 32.775 18.4749 33.0281 18.5405L32.9937 18.5343C35.4125 19.0655 39.7312 19.8999 42.5031 20.3687C42.8187 20.4062 43.1031 20.4687 43.3781 20.5624L43.3469 20.553C43.2375 20.6499 43.1125 20.7312 42.9719 20.7905L42.9625 20.7937C42.4969 21.028 40.6125 22.1562 39.9844 22.578C38.4781 23.5749 37.1625 24.6312 35.9531 25.7937L35.9625 25.7843C35.7125 26.0405 35.4562 26.2905 35.1937 26.5343C35.1344 26.3874 35.0781 26.2062 35.0375 26.0249L35.0344 25.9999C34.2719 23.2812 33.4062 20.9749 32.375 18.7624L32.4969 19.053C32.3948 18.8426 32.3021 18.628 32.2187 18.4093L32.2312 18.3999ZM25.2406 16.4718C25.4531 16.5218 25.6344 16.5812 25.8062 16.6468L25.775 16.6374C26.3062 16.8187 27.0093 17.028 27.8281 17.2593C28.3968 17.4155 29.0281 17.5874 29.7 17.7562C30.55 17.9749 31.2594 18.1624 31.2656 18.1749C31.3594 18.2812 32.7937 22.853 33.2812 24.6062C33.4687 25.278 33.6094 25.8374 33.5969 25.8468C33.4687 25.6874 33.35 25.5093 33.2531 25.3187L33.2437 25.2999C31.2875 22.053 28.85 19.3124 25.9906 17.0874L25.925 17.0374C25.6896 16.8582 25.4604 16.6707 25.2375 16.4749L25.2406 16.4718ZM21.5875 12.9218C21.4937 13.1062 21.4375 13.3218 21.4375 13.553C21.4375 13.7718 21.4875 13.978 21.575 14.1593L21.5719 14.1499C21.9281 14.7655 22.3718 15.2874 22.8906 15.7187L22.9 15.7249C22.9 15.7249 29.2062 21.878 29.9812 22.7687C33.1781 26.2624 35.1375 30.9343 35.1375 36.0624C35.1375 36.128 35.1375 36.1968 35.1375 36.2624V36.253C35.1406 36.4093 35.1437 36.5937 35.1437 36.778C35.1437 40.303 34.3156 43.6312 32.8437 46.5843L32.9 46.4562C28.1281 55.0249 21.825 62.1749 14.2937 67.7687L14.1156 67.8937L15.5219 67.4249C16.9469 66.4343 18.6 65.4405 20.3125 64.553L20.5656 64.4343C27.025 60.8718 34.75 57.3405 42.7406 54.3561L43.9906 53.9468C57.3187 48.9374 73.2781 44.5218 89.7219 41.4812L92.8187 41.0062L92.625 40.6937C91.6562 39.1593 90.7187 37.853 89.7094 36.603L89.7718 36.6843C87.0031 33.2968 83.6625 30.4937 79.8812 28.3937L79.7062 28.3062C73.3812 24.9468 66.0406 22.3905 58.2875 21.0312L57.8375 20.9655C54.9937 20.4301 52.1416 19.9416 49.2812 19.4999C44.1646 18.7145 39.0562 17.8812 33.9562 16.9999C32.2969 16.7062 29.8156 16.2937 28.1719 15.9374C26.6469 15.6124 25.3875 15.2655 24.1594 14.8562L24.4187 14.9312C23.3719 14.5218 21.9031 14.1218 21.5875 12.9218Z" fill="white"/>
</svg>
