<svg width="100" height="100" viewBox="0 0 100 100" fill="none" xmlns="http://www.w3.org/2000/svg">
<g clip-path="url(#clip0_9649_115)">
<path d="M88.125 24.5833L53.5417 5.00002C52.4335 4.47971 51.2243 4.20996 50 4.20996C48.7758 4.20996 47.5666 4.47971 46.4584 5.00002L11.875 24.5833C10.8117 25.1971 9.92621 26.0767 9.30532 27.1359C8.68443 28.195 8.3495 29.3974 8.33337 30.625V69.375C8.3495 70.6026 8.68443 71.805 9.30532 72.8642C9.92621 73.9233 10.8117 74.8029 11.875 75.4167L21.0417 80.625C23.4364 82.04 26.1774 82.7613 28.9584 82.7083C35.4167 82.7083 39.1667 78.75 39.1667 72.0833V33.9583C39.1667 33.6821 39.057 33.4171 38.8616 33.2218C38.6663 33.0264 38.4013 32.9167 38.125 32.9167H33.75C33.4738 32.9167 33.2088 33.0264 33.0135 33.2218C32.8181 33.4171 32.7084 33.6821 32.7084 33.9583V72.0833C32.7084 75.2083 29.5834 78.125 24.5834 75.625L15 70.2083C14.8707 70.1113 14.7657 69.9855 14.6933 69.8409C14.621 69.6962 14.5834 69.5367 14.5834 69.375V30.625C14.5977 30.2401 14.7449 29.872 15 29.5833L49.375 10.2083H50.625L85 29.5833C85.2551 29.872 85.4024 30.2401 85.4167 30.625V69.375C85.4167 69.5367 85.3791 69.6962 85.3067 69.8409C85.2344 69.9855 85.1294 70.1113 85 70.2083L50.625 89.5833C50.435 89.6931 50.2195 89.7508 50 89.7508C49.7806 89.7508 49.5651 89.6931 49.375 89.5833L40.625 84.5833C40.5105 84.4808 40.3621 84.4242 40.2084 84.4242C40.0546 84.4242 39.9063 84.4808 39.7917 84.5833L34.5834 86.875C33.9584 87.0833 33.125 87.2917 34.7917 88.3333L46.4584 94.7917C47.5107 95.4818 48.7416 95.8494 50 95.8494C51.2584 95.8494 52.4894 95.4818 53.5417 94.7917L88.125 75.4167C89.1883 74.8029 90.0739 73.9233 90.6948 72.8642C91.3156 71.805 91.6506 70.6026 91.6667 69.375V30.625C91.6506 29.3974 91.3156 28.195 90.6948 27.1359C90.0739 26.0767 89.1883 25.1971 88.125 24.5833Z" fill="white"/>
<path d="M60.625 63.125C51.4583 63.125 49.5833 61.0417 48.75 56.6667C48.75 56.4457 48.6622 56.2337 48.5059 56.0774C48.3496 55.9211 48.1377 55.8333 47.9167 55.8333H43.3333C43.1123 55.8333 42.9004 55.9211 42.7441 56.0774C42.5878 56.2337 42.5 56.4457 42.5 56.6667C42.5 62.2917 45.625 69.1667 60.625 69.1667C71.4583 69.1667 77.7083 65 77.7083 57.7083C77.7083 50.4167 72.7083 48.3333 62.0833 47.0833C51.4583 45.8333 50.4167 45 50.4167 42.5C50.4167 40 51.25 37.9167 59.1667 37.9167C67.0833 37.9167 68.9583 39.375 70 43.9583C70.0487 44.1972 70.1796 44.4113 70.3699 44.5636C70.5603 44.7159 70.798 44.7966 71.0417 44.7917H75.4167L76.25 44.375C76.3254 44.2904 76.3827 44.1914 76.4186 44.084C76.4544 43.9765 76.4679 43.8629 76.4583 43.75C75.8333 35.625 70.2083 31.875 59.1667 31.875C48.125 31.875 43.5417 36.0417 43.5417 42.7083C43.5417 49.375 49.375 52.0833 58.75 53.125C68.125 54.1667 71.0417 55.625 71.0417 57.9167C71.0417 60.2083 67.9167 63.125 60.625 63.125Z" fill="white"/>
</g>
<defs>
<clipPath id="clip0_9649_115">
<rect width="100" height="100" fill="white"/>
</clipPath>
</defs>
</svg>
