<svg width="100" height="100" viewBox="0 0 100 100" fill="none" xmlns="http://www.w3.org/2000/svg">
<g clip-path="url(#clip0_9649_123)">
<path fill-rule="evenodd" clip-rule="evenodd" d="M63.7199 92.29C61.3099 92.29 59.36 90.3303 59.36 87.9077C59.36 85.4851 61.3099 83.5303 63.7199 83.5303C66.1299 83.5303 68.08 85.4851 68.08 87.9077C68.08 90.3303 66.1299 92.29 63.7199 92.29ZM50.36 100C75.75 100 74.165 88.9331 74.165 88.9331L74.135 77.4683H49.91V74.0259H83.755C83.755 74.0259 100 75.8807 100 50.1318C100 24.3829 85.825 25.2905 85.825 25.2905H77.3599V37.2437C77.3599 37.2437 77.815 51.4917 63.41 51.4917H39.38C39.38 51.4917 25.88 51.2775 25.88 64.6118V86.6553C25.88 86.6553 23.83 100 50.36 100ZM36.2849 7.70996C38.6949 7.70996 40.64 9.66969 40.64 12.0923C40.64 14.5149 38.6949 16.4697 36.2849 16.4697C33.8749 16.4697 31.925 14.5149 31.925 12.0923C31.925 9.66969 33.8749 7.70996 36.2849 7.70996ZM49.64 0C24.255 0 25.84 11.0669 25.84 11.0669L25.8701 22.5317H50.0951V25.9741H16.245C16.245 25.9741 0 24.1193 0 49.8682C0 75.6171 14.18 74.7095 14.18 74.7095H22.6401V62.7563C22.6401 62.7563 22.185 48.5083 36.595 48.5083H60.62C60.62 48.5083 74.12 48.7225 74.12 35.3882V13.3447C74.12 13.3447 76.17 0 49.64 0Z" fill="white"/>
</g>
<defs>
<clipPath id="clip0_9649_123">
<rect width="100" height="100" fill="white"/>
</clipPath>
</defs>
</svg>
