<svg width="100" height="100" viewBox="0 0 100 100" fill="none" xmlns="http://www.w3.org/2000/svg">
<g clip-path="url(#clip0_9649_104)">
<path d="M50 42.125C51.5375 42.1251 53.0406 42.5801 54.3201 43.4326C55.5995 44.2851 56.5982 45.4972 57.1903 46.916C57.7824 48.3349 57.9415 49.8973 57.6475 51.4064C57.3536 52.9155 56.6197 54.3039 55.5384 55.3969C54.457 56.4898 53.0765 57.2384 51.5706 57.5484C50.0647 57.8584 48.5007 57.7159 47.0756 57.1389C45.6505 56.5619 44.4279 55.5762 43.5618 54.3059C42.6957 53.0356 42.2248 51.5374 42.2084 50C42.2029 48.9714 42.4001 47.9517 42.7887 46.9992C43.1773 46.0467 43.7497 45.1801 44.4732 44.4488C45.1967 43.7175 46.0572 43.136 47.0055 42.7372C47.9538 42.3385 48.9713 42.1305 50 42.125ZM30.7084 83.3334C33.3334 84.9167 39.0417 82.5 45.7084 76.25C43.4802 73.718 41.3803 71.0757 39.4167 68.3334C36.056 67.957 32.7178 67.4006 29.4167 66.6667C27.2917 75.5834 28.0834 81.7084 30.7084 83.3334ZM33.6667 59.4167L32.4584 57.2917C31.9873 58.462 31.5839 59.6585 31.25 60.875C32.375 61.125 33.625 61.3334 34.9167 61.5417L33.6667 59.4167ZM60.9167 56.25L64.2917 50L60.9167 43.75C59.6667 41.5417 58.3334 39.5834 57.125 37.625C54.875 37.5 52.5 37.5 50 37.5C47.5 37.5 45.125 37.5 42.875 37.5C41.6667 39.4584 40.3334 41.4167 39.0834 43.625L35.7084 50L39.0834 56.25C40.3334 58.4584 41.6667 60.4167 42.875 62.375C45.125 62.375 47.5 62.375 50 62.375C52.5 62.375 54.875 62.375 57.125 62.375C58.3334 60.4167 59.6667 58.4584 60.9167 56.25ZM50 28.25C49.2084 29.1667 48.375 30.125 47.5417 31.25H52.4584C51.625 30.125 50.7917 29.1667 50 28.25ZM50 71.75C50.7917 70.8334 51.625 69.875 52.4584 68.75H47.5417C48.375 69.875 49.2084 70.8334 50 71.75ZM69.25 16.6667C66.6667 15.0834 60.9167 17.5 54.2917 23.75C56.5199 26.2821 58.6198 28.9243 60.5834 31.6667C63.9411 31.988 67.2792 32.4888 70.5834 33.1667C72.7084 24.25 71.9167 18.125 69.25 16.5M66.3334 40.4167L67.5417 42.5417C68.0127 41.3714 68.4162 40.175 68.75 38.9584C67.625 38.7084 66.375 38.5 65.0834 38.2917L66.3334 40.4167ZM72.375 11.25C78.5 14.75 79.1667 23.9584 76.5417 34.7084C87.125 37.8334 94.75 43.0417 94.75 50.0417C94.75 57.0417 87.125 62.25 76.5417 65.375C79.125 76.125 78.4584 85.3334 72.375 88.8334C66.2917 92.3334 58 88.3334 50 80.7084C42 88.3334 33.7084 92.3334 27.5834 88.8334C21.4584 85.3334 20.8334 76.3334 23.4167 65.375C12.8334 62.25 5.20837 57.0417 5.20837 50.0417C5.20837 43.0417 12.8334 37.7917 23.4167 34.6667C20.8334 23.9167 21.5 14.7084 27.5834 11.2084C33.6667 7.70838 42 11.7084 50 19.3334C58 11.7084 66.2917 7.70838 72.375 11.2084M71.1667 50C72.6138 53.0673 73.8935 56.2108 75 59.4167C83.75 56.7917 88.6667 53.0417 88.6667 50C88.6667 46.9584 83.625 43.2084 75 40.5834C73.8935 43.7893 72.6138 46.9328 71.1667 50ZM28.8334 50C27.3863 46.9328 26.1066 43.7893 25 40.5834C16.25 43.2084 11.3334 46.9584 11.3334 50C11.3334 53.0417 16.375 56.7917 25 59.4167C26.1066 56.2108 27.3863 53.0673 28.8334 50ZM66.3334 59.4167L65.0834 61.5417C66.375 61.5417 67.625 61.125 68.75 60.875C68.4162 59.6585 68.0127 58.462 67.5417 57.2917L66.3334 59.4167ZM54.1667 76.25C60.7917 82.5 66.6667 84.9167 69.125 83.3334C71.5834 81.75 72.5834 75.75 70.4584 66.6667C67.1542 67.3447 63.8161 67.8454 60.4584 68.1667C58.4993 70.9659 56.3994 73.6638 54.1667 76.25ZM33.6667 40.5834L34.9167 38.4584C33.625 38.4584 32.375 38.875 31.25 39.125C31.5839 40.3416 31.9873 41.538 32.4584 42.7084L33.6667 40.5834ZM45.8334 23.75C39.0834 17.5 33.3334 15.0834 30.7084 16.6667C28.0834 18.25 27.2917 24.25 29.4167 33.3334C32.7209 32.6554 36.059 32.1547 39.4167 31.8334C41.4163 29.0313 43.558 26.3333 45.8334 23.75Z" fill="white"/>
</g>
<defs>
<clipPath id="clip0_9649_104">
<rect width="100" height="100" fill="white"/>
</clipPath>
</defs>
</svg>
