<svg width="30" height="30" viewBox="0 0 30 30" fill="none" xmlns="http://www.w3.org/2000/svg">
<path d="M0 15V30H30V0H0V15ZM18.2038 24.5325C18.3387 24.4562 18.8425 24.165 19.3188 23.8888L20.1813 23.3888L20.3625 23.6562C20.615 24.0412 21.1663 24.57 21.5 24.7463C22.4575 25.2513 23.7712 25.18 24.4188 24.5988C24.66 24.395 24.8113 24.0925 24.8113 23.755C24.8113 23.735 24.8112 23.7163 24.81 23.6963V23.6987C24.81 23.3512 24.7662 23.1988 24.585 22.9363C24.3525 22.6038 23.8762 22.3237 22.5237 21.7362C20.9762 21.07 20.31 20.6562 19.7 19.9987C19.3325 19.5812 19.0487 19.0788 18.8838 18.5263L18.8762 18.4987C18.7625 18.075 18.7337 17.0125 18.8237 16.585C19.1425 15.0887 20.2712 14.0475 21.9 13.7375C22.4288 13.6375 23.6575 13.675 24.1763 13.8038C24.9387 13.9938 25.5187 14.3338 26.0525 14.8863C26.3287 15.1813 26.7388 15.7188 26.7712 15.8488C26.7812 15.8862 25.4763 16.7612 24.6863 17.2525C24.6575 17.2712 24.5425 17.1475 24.415 16.9575C24.0275 16.395 23.6237 16.1525 23.005 16.11C22.095 16.0475 21.51 16.5238 21.515 17.3187C21.515 17.3325 21.5138 17.3488 21.5138 17.365C21.5138 17.5538 21.5613 17.7313 21.645 17.8862L21.6425 17.88C21.8425 18.2938 22.215 18.5425 23.38 19.0463C25.5288 19.9713 26.4475 20.58 27.0187 21.4462C27.6562 22.4125 27.8 23.9563 27.3662 25.1038C26.8912 26.3512 25.71 27.1987 24.0475 27.4788C23.5338 27.57 22.315 27.5562 21.7625 27.4562C20.5575 27.2413 19.415 26.6462 18.71 25.865C18.4338 25.5612 17.895 24.765 17.9288 24.7087C17.9425 24.6887 18.0662 24.6125 18.2038 24.5325ZM6.5725 15.0812C6.5725 14.4137 6.58625 13.8562 6.605 13.8438C6.62 13.8237 8.99625 13.8138 11.8763 13.8188L17.12 13.8338L17.1337 15.0575L17.1437 16.2863H13.2375V27.3813H10.475V16.2863H6.5725V15.0812Z" fill="white"/>
</svg>
